{"title":"Storage Wars Texas S03E26 HDTV XviD-AFG [P2PDL]","uid":9394201,"size":220418728,"categoryP":"video","categoryS":"tv_shows","magnet":"?xt=urn:btih:2d21d8e5946cda1219afb78dbf8a6237e4dafb00&amp;dn=Storage+Wars+Texas+S03E26+HDTV+XviD-AFG+%5BP2PDL%5D&amp;tr=udp%3A%2F%2Ftracker.openbittorrent.com%3A80&amp;tr=udp%3A%2F%2Fopen.demonii.com%3A1337&amp;tr=udp%3A%2F%2Ftracker.coppersurfer.tk%3A6969&amp;tr=udp%3A%2F%2Fexodus.desync.com%3A6969","seeders":1,"leechers":0,"uploader":"ValidusVyto","files":3,"time":1387948830,"description":"Storage.Wars.Texas.S03E26.HDTV.XviD-AFG\n\nInfo:\nGeneral\nComplete name                            : Storage.Wars.Texas.S03E26.HDTV.XviD-AFG.[P2PDL]/Storage.Wars.Texas.S03E26.HDTV.XviD-AFG.avi\nFormat                                   : AVI\nFormat/Info                              : Audio Video Interleave\nFile size                                : 210 MiB\nDuration                                 : 21mn 8s\nOverall bit rate mode                    : Variable\nOverall bit rate                         : 1 390 Kbps\n\nVideo\nID                                       : 0\nFormat                                   : MPEG-4 Visual\nFormat profile                           : Advanced Simple@L5\nFormat settings, BVOP                    : 2\nFormat settings, QPel                    : No\nFormat settings, GMC                     : No warppoints\nFormat settings, Matrix                  : Default (H.263)\nCodec ID                                 : XVID\nCodec ID/Hint                            : XviD\nDuration                                 : 21mn 8s\nBit rate                                 : 1 248 Kbps\nWidth                                    : 640 pixels\nHeight                                   : 360 pixels\nDisplay aspect ratio                     : 16:9\nFrame rate                               : 29.970 fps\nColor space                              : YUV\nChroma subsampling                       : 4:2:0\nBit depth                                : 8 bits\nScan type                                : Progressive\nCompression mode                         : Lossy\nBits/(Pixel*Frame)                       : 0.181\nStream size                              : 189 MiB (90%)\nWriting library                          : XviD 64\n\nAudio\nID                                       : 1\nFormat                                   : MPEG Audio\nFormat version                           : Version 1\nFormat profile                           : Layer 3\nMode                                     : Joint stereo\nMode extension                           : MS Stereo\nCodec ID                                 : 55\nCodec ID/Hint                            : MP3\nDuration                                 : 21mn 8s\nBit rate mode                            : Variable\nBit rate                                 : 128 Kbps\nChannel(s)                               : 2 channels\nSampling rate                            : 48.0 KHz\nCompression mode                         : Lossy\nStream size                              : 19.4 MiB (9%)\nAlignment                                : Aligned on interleaves\nInterleave, duration                     : 24 ms (0.72 video frame)\nInterleave, preload duration             : 178 ms\nTitle                                    : Storage.Wars.Texas.S03E26.HDTV.XviD-AFG_360p.audio\n\n\n\n\nScreenshots: &lt;a href=&quot;\nhttp://beeimg.com/images/k13442845362.jpg&quot; rel=&quot;nofollow&quot; target=&quot;_NEW&quot;&gt;\nhttp://beeimg.com/images/k13442845362.jpg&lt;/a&gt; &lt;a href=&quot;\nhttp://beeimg.com/images/p23894591831.jpg&quot; rel=&quot;nofollow&quot; target=&quot;_NEW&quot;&gt;\nhttp://beeimg.com/images/p23894591831.jpg&lt;/a&gt;","torrent":{"xt":"urn:btih:2d21d8e5946cda1219afb78dbf8a6237e4dafb00","amp;dn":"Storage+Wars+Texas+S03E26+HDTV+XviD-AFG+%5BP2PDL%5D","amp;tr":["udp%3A%2F%2Ftracker.openbittorrent.com%3A80","udp%3A%2F%2Fopen.demonii.com%3A1337","udp%3A%2F%2Ftracker.coppersurfer.tk%3A6969","udp%3A%2F%2Fexodus.desync.com%3A6969"],"infoHash":"2d21d8e5946cda1219afb78dbf8a6237e4dafb00","infoHashBuffer":{"type":"Buffer","data":[45,33,216,229,148,108,218,18,25,175,183,141,191,138,98,55,228,218,251,0]},"announce":[],"urlList":[]}}